# xmcd
#
# Track frame offsets: 
#        150
#        13803
#        28296
#        44663
#        56306
#        69374
#        79915
#        93769
#        109173
#        120314
#        130471
#        140962
#
# Disc length: 1986 seconds
#
# Revision: 0
# Processed by: cddbd v1.5.2PL0 Copyright (c) Steve Scherf et al.
# Submitted via: ExactAudioCopy v0.95b4
#
DISCID=a907c00c
DTITLE=Judy Henske - Little Bit Of Sunshine
DYEAR=1900
DGENRE=Blues
TTITLE0=Any Day Now
TTITLE1=Feeling Good
TTITLE2=Porgy
TTITLE3=The Other Side Of This Life
TTITLE4=He Needs Me
TTITLE5=Blues My Naughty Sweetie Gives To Me
TTITLE6=She Doesn't Know
TTITLE7=Crazy He Calls Me
TTITLE8=Silver Dollar
TTITLE9=Baby
TTITLE10=Just A Little Bit Of Rain
TTITLE11=Some Of These Days
EXTD=
EXTT0=
EXTT1=
EXTT2=
EXTT3=
EXTT4=
EXTT5=
EXTT6=
EXTT7=
EXTT8=
EXTT9=
EXTT10=
EXTT11=
PLAYORDER=
